<svg
    id="illustration"
    xmlns="http://www.w3.org/2000/svg"
    viewBox="0 0 56.2 75"
>
    <style>
    .st3 {
        fill: #829541;
    }
    .st4 {
        fill: #6b7d36;
    }
    </style>
    <ellipse cx="28.1" cy="73.2" rx="28.1" ry="1.8" fill="#bf8e3f" />
    <circle cx="28.1" cy="40.6" r="28.1" fill="#525252" />
    <path
    d="M49.3 12.4H7c-1.9-.1-3.6 1.3-3.8 3.2-.1 1.9 1.3 3.6 3.2 3.8h42.8c1.9.1 3.6-1.3 3.8-3.2.1-1.9-1.3-3.6-3.2-3.8h-.5z"
    fill="#aeaeae"
    />
    <path
    class="st3"
    d="M22.7 12.4h-7c.2-1.9 1.9-3.3 3.9-3.1 1.6.2 2.9 1.5 3.1 3.1z"
    />
    <path
    class="st3"
    d="M41.3 12.4H21.9c-.1-3.9 3-7.1 6.8-7.2 3-.1 5.7 1.7 6.7 4.5.7-.5 1.5-.8 2.3-.8 2 0 3.6 1.6 3.6 3.5z"
    />
    <ellipse class="st3" cx="37.8" cy="2.6" rx="2.2" ry="2.2" />
    <circle class="st3" cx="20.6" cy="4.7" r="1.3" />
    <circle class="st3" cx="23.3" cy="1.3" r="1.3" />
    <path
    class="st4"
    d="M26.2 12.4h15.1c0 3-2.4 5.5-5.5 5.5-2.2 0-4.2-1.3-5.1-3.4-1.1 1-2.9.9-3.9-.3-.4-.5-.6-1.1-.6-1.8z"
    />
    <path
    class="st4"
    d="M30.8 14.6v10.2c0 .9.8 1.7 1.7 1.7.9 0 1.7-.8 1.7-1.7V14.6c0-.9-.8-1.7-1.7-1.7-.9 0-1.7.7-1.7 1.7z"
    />
    <circle class="st4" cx="32.5" cy="30.5" r="1.3" />
</svg>